<svg version="1.1" id="Layer_1" xmlns="http://www.w3.org/2000/svg" xmlns:xlink="http://www.w3.org/1999/xlink" x="0px" y="0px"
	 width="100%" viewBox="0 0 1024 448" enable-background="new 0 0 1024 448" xml:space="preserve">
<path fill="#000000" opacity="1.000000" stroke="none" 
	d="
M219.722168,317.971802 
	C223.063248,296.321320 226.335648,275.103668 229.682907,253.897827 
	C233.465805,229.932281 237.363647,205.984848 241.124680,182.015915 
	C245.687500,152.937256 250.167450,123.845573 254.666122,94.756866 
	C256.088623,85.558891 257.476746,76.355461 258.836792,67.148056 
	C259.276276,64.172821 260.855347,62.801968 263.901031,62.885231 
	C267.564606,62.985386 271.233246,62.893173 274.899689,62.894039 
	C349.896057,62.911789 424.892395,62.930885 499.888763,62.950329 
	C501.222015,62.950672 502.556488,62.997986 503.888275,62.955822 
	C508.378082,62.813667 509.688110,64.980034 508.991699,69.255333 
	C507.252014,79.935425 505.953156,90.691071 504.033081,101.336266 
	C503.216217,105.865196 504.255035,107.117271 508.890350,107.058334 
	C526.219421,106.838013 543.553528,107.002403 560.885742,107.045319 
	C567.911316,107.062714 568.330688,107.538689 567.267944,114.507355 
	C565.435730,126.520332 563.567749,138.527969 561.671814,150.531036 
	C561.095032,154.182510 560.407288,157.548889 564.307983,160.256653 
	C566.453613,161.746109 566.601990,164.938599 567.288574,167.514725 
	C568.041931,170.341278 568.889648,173.142715 569.821228,176.390961 
	C572.822571,174.267303 573.877625,171.577637 575.246460,169.195831 
	C594.504822,135.685806 613.771118,102.180000 632.864441,68.575958 
	C635.208252,64.450851 637.974792,62.779110 642.774353,62.798843 
	C682.271729,62.961208 721.770081,62.880936 761.268127,62.907970 
	C763.373108,62.909409 766.064514,62.140831 767.309326,64.230133 
	C768.710205,66.581406 766.456604,68.590889 765.330627,70.496864 
	C759.485901,80.390259 753.525024,90.215149 747.587402,100.053482 
	C746.555664,101.762962 745.418762,103.414520 745.702087,106.850365 
	C772.363953,106.850365 799.129944,106.850365 825.280945,106.850365 
	C826.846619,110.005745 825.481934,111.281708 824.683838,112.655617 
	C795.648071,162.638489 766.556458,212.588974 737.561707,262.595642 
	C711.407471,307.703369 685.275330,352.824463 659.365234,398.072418 
	C656.146179,403.694092 652.075134,405.267456 645.963623,405.260895 
	C533.469543,405.139801 420.975250,405.181274 308.481018,405.189453 
	C298.148254,405.190186 287.814423,405.113373 277.483246,405.243561 
	C273.248413,405.296967 271.493683,404.287842 272.390594,399.418488 
	C274.673309,387.025848 276.374908,374.526154 278.296692,362.149292 
	C275.499298,360.327545 272.762054,360.958527 270.182281,360.951813 
	C253.683426,360.909058 237.184280,360.990234 220.685242,360.992004 
	C213.918259,360.992737 213.155396,359.885223 214.233505,353.373901 
	C216.160263,341.737274 217.880157,330.066437 219.722168,317.971802 
M474.791229,243.827911 
	C475.627594,246.526306 476.513977,249.210373 477.292603,251.925323 
	C485.183685,279.441223 491.505005,307.382507 499.751648,334.806030 
	C500.766754,338.181580 502.010651,339.754669 505.825348,339.729248 
	C530.823486,339.562500 555.823364,339.587067 580.822205,339.678284 
	C584.040466,339.690033 586.006836,338.620361 587.647278,335.813660 
	C599.248047,315.965271 611.141052,296.286774 622.659729,276.391388 
	C657.385437,216.412415 692.007751,156.373474 726.569946,96.300163 
	C728.650269,92.684357 731.555115,89.331238 732.147888,84.978325 
	C730.109192,83.872604 728.242310,84.277519 726.445374,84.274261 
	C703.112854,84.231979 679.778259,84.386917 656.449341,84.085144 
	C651.115417,84.016151 648.023071,85.602570 645.338318,90.309517 
	C619.835083,135.022873 594.105469,179.607117 568.416504,224.214447 
	C566.975525,226.716553 565.935242,229.580917 563.227783,231.274429 
	C561.274414,229.487762 561.151550,227.250443 560.648010,225.210403 
	C557.294922,211.626236 553.899597,198.051361 550.717590,184.426849 
	C549.855530,180.735947 548.181152,179.254456 544.238708,179.258835 
	C452.408295,179.360672 360.577728,179.375443 268.747345,179.275208 
	C264.654480,179.270737 263.125153,180.915207 262.562744,184.577972 
	C260.190491,200.028564 257.723541,215.464600 255.304520,230.908035 
	C251.056259,258.029572 246.738815,285.140686 242.620407,312.281952 
	C241.282211,321.100861 239.386032,329.866180 238.921219,338.842041 
	C241.279831,340.031616 243.479401,339.650696 245.596054,339.651245 
	C316.093842,339.669525 386.591614,339.664185 457.089386,339.659546 
	C463.135223,339.659149 463.401398,339.495941 461.944763,333.843750 
	C457.459503,316.439362 452.631775,299.120392 448.378784,281.660675 
	C447.165802,276.681061 445.156494,275.064178 439.975342,275.103546 
	C406.478271,275.358063 372.978424,275.255310 339.479492,275.248474 
	C333.485138,275.247253 332.989777,274.609070 333.861603,269.049316 
	C334.945068,262.139648 335.906281,255.210831 336.986938,248.300705 
	C337.957550,242.094284 339.120972,240.986771 345.446808,240.980804 
	C386.112030,240.942383 426.777313,240.967072 467.442596,240.983719 
	C469.951263,240.984741 472.498352,240.972641 474.791229,243.827911 
M272.112396,122.471504 
	C271.166534,131.129822 268.860718,139.662750 269.168030,149.616180 
	C284.493134,149.616180 299.281982,149.690796 314.069794,149.602722 
	C366.015991,149.293365 417.966644,150.503922 469.911987,149.120071 
	C474.143799,149.007324 476.220306,147.837997 477.031342,143.533783 
	C480.328064,126.037537 482.115814,108.326607 484.785767,90.742882 
	C485.771057,84.253967 485.521698,84.186172 479.051056,84.214844 
	C429.599457,84.433968 380.148102,84.733986 330.696320,84.853851 
	C314.883728,84.892181 299.069244,84.506363 283.257477,84.213608 
	C280.006409,84.153412 277.905212,84.843613 277.368439,88.581520 
	C275.785767,99.603119 273.961884,110.590088 272.112396,122.471504 
M388.253906,389.599030 
	C387.792847,391.461426 386.229919,393.104309 387.148712,395.455933 
	C388.053436,395.609924 389.012329,395.913544 389.971771,395.915192 
	C402.957397,395.937775 415.943542,395.861450 428.928528,395.952240 
	C431.906586,395.973053 434.106689,394.943542 435.638367,392.490204 
	C437.390747,389.683350 439.744476,388.373260 443.142365,388.682953 
	C445.447693,388.893066 447.821198,388.822266 450.119751,388.528870 
	C453.396027,388.110657 455.353699,388.957001 455.239105,392.630768 
	C455.155182,395.321350 456.846680,396.008820 459.135254,395.976257 
	C461.132568,395.947815 463.130707,395.885040 465.127228,395.916992 
	C467.954193,395.962250 468.964142,394.467926 468.812836,391.832336 
	C468.155365,380.379639 467.518402,368.925751 466.867920,357.472656 
	C466.775421,355.843597 466.274353,354.433289 464.359436,354.344208 
	C458.602295,354.076508 453.096100,353.267609 448.778381,359.222107 
	C441.265167,369.583557 432.965454,379.376648 424.931854,389.356842 
	C423.709381,390.875549 422.879181,393.123444 420.378540,393.171814 
	C419.260864,390.629028 422.089081,388.898895 420.995636,386.656311 
	C418.986511,385.066193 416.583893,385.449066 414.292358,385.415161 
	C403.606995,385.256989 403.666229,385.296906 407.506073,375.380371 
	C410.063690,368.775238 413.167328,362.338043 414.558228,355.348480 
	C405.286865,352.165161 401.508759,353.598267 398.406830,361.679047 
	C394.950104,370.684052 391.780640,379.799316 388.253906,389.599030 
M485.882172,360.280273 
	C481.644592,371.746002 477.406982,383.211731 473.172211,394.669800 
	C482.418579,398.046204 485.503662,396.641541 488.523926,388.516815 
	C489.789185,385.113098 490.359192,381.263306 494.010010,378.162903 
	C496.310699,383.181152 498.656128,387.562164 500.347717,392.182617 
	C502.236023,397.340393 506.493958,395.581787 510.015045,396.155151 
	C513.320740,396.693451 514.328369,394.458466 515.238281,391.992920 
	C518.750305,382.476166 522.334106,372.985596 525.790039,363.448669 
	C526.775330,360.729675 528.643555,358.214325 528.320374,355.122253 
	C518.042053,352.600128 516.499817,353.432159 512.827698,362.709503 
	C511.639557,365.711334 511.246185,369.131073 508.476440,372.012817 
	C505.157501,368.183319 503.774658,363.674652 502.379700,359.396637 
	C500.639954,354.061371 496.852814,354.305695 492.527557,354.100769 
	C488.275513,353.899292 487.050812,356.308105 485.882172,360.280273 
M379.102814,387.613129 
	C384.240021,382.842560 387.876038,377.169434 389.297394,370.240631 
	C390.915009,362.355042 387.341187,356.431396 379.709564,354.144165 
	C363.003632,349.137329 341.203400,363.466125 339.342072,380.676880 
	C338.332001,390.016541 343.492706,396.048309 352.840576,396.753296 
	C362.681427,397.495392 371.225311,394.627319 379.102814,387.613129 
M574.055603,361.427032 
	C569.379028,372.378693 564.822632,383.374207 561.422058,394.580811 
	C563.282715,396.521729 565.214050,395.982117 566.969299,395.987122 
	C573.956909,396.007111 580.944824,395.909729 587.932678,395.898773 
	C595.804993,395.886414 596.385620,395.379578 597.829529,386.684723 
	C592.910522,385.721527 587.935913,386.537598 583.017029,386.221832 
	C581.256836,386.108826 578.942017,386.476532 578.981201,383.761841 
	C579.016541,381.311676 580.394104,379.740631 583.081177,379.736176 
	C585.909485,379.731476 588.737793,379.710602 591.566101,379.700867 
	C598.630249,379.676575 600.308899,377.973419 600.454102,370.231842 
	C598.645935,370.231842 596.842285,370.233612 595.038635,370.231384 
	C593.042114,370.228943 591.041809,370.296021 589.050171,370.195190 
	C587.464966,370.114899 585.311584,370.412231 585.360962,367.985107 
	C585.403076,365.912201 586.830383,364.714081 589.004639,364.690399 
	C592.498230,364.652344 595.992065,364.635864 599.485840,364.616730 
	C607.077393,364.575134 608.739319,362.854187 608.860352,354.293427 
	C600.422241,354.293427 591.960388,354.638641 583.544312,354.167389 
	C578.270325,353.872070 575.311707,355.581726 574.055603,361.427032 
M628.999512,363.920044 
	C632.223633,363.510834 635.323181,364.123962 638.299805,365.268097 
	C640.689514,366.186676 642.483032,365.656372 643.959167,363.622528 
	C645.499390,361.500427 647.445068,359.641541 648.437988,356.625336 
	C643.592529,353.388153 638.201538,353.065857 632.737000,353.362122 
	C621.620605,353.964722 612.563538,359.996521 609.995544,368.337250 
	C608.461670,373.319458 609.729858,376.466553 614.512207,378.379578 
	C617.425476,379.544891 620.585815,380.079102 623.597595,381.017487 
	C625.008057,381.456940 626.643005,382.012970 626.605103,383.876770 
	C626.565857,385.803101 624.901733,386.074432 623.423645,386.434906 
	C619.147461,387.477783 615.207458,386.252197 611.311584,384.684235 
	C609.822571,384.084869 608.302917,382.840363 606.851990,384.723206 
	C604.775574,387.417877 602.198608,389.781708 600.822510,393.306030 
	C607.936218,397.456207 615.450989,397.616638 622.828308,396.321869 
	C630.574890,394.962372 637.454285,391.533600 640.865967,383.681030 
	C643.537354,377.532318 641.897278,373.760132 635.637939,371.571869 
	C633.290344,370.751129 630.810791,370.315125 628.414734,369.622986 
	C626.982483,369.209290 625.327393,368.786072 625.215454,366.949707 
	C625.098083,365.023834 626.822510,364.673370 628.999512,363.920044 
M344.660645,354.201019 
	C338.079254,353.067810 333.193329,355.217926 329.583160,361.058472 
	C326.974091,365.279327 323.610657,369.040253 320.508667,372.946716 
	C319.412994,374.326538 318.601044,376.137695 316.193970,376.417389 
	C314.113770,372.773346 315.104187,368.756165 314.938416,364.903656 
	C314.424500,352.957855 316.965729,354.193726 303.238800,354.211517 
	C300.609314,354.214905 299.883698,355.334381 300.006165,357.915985 
	C300.541809,369.207855 300.878174,380.509125 301.293732,391.806732 
	C301.348663,393.300262 301.306732,394.796234 302.979919,395.648926 
	C306.658142,397.523499 315.712097,395.568176 318.426819,392.210358 
	C327.527405,380.953857 336.615417,369.687164 345.696442,358.414856 
	C346.320221,357.640533 347.038177,356.860260 347.379822,355.957031 
	C348.168732,353.871246 346.375427,354.454559 344.660645,354.201019 
M534.429626,384.858704 
	C533.481018,388.329956 531.418457,391.464813 531.052673,395.046722 
	C532.901184,396.494049 534.804138,395.718536 536.549438,395.989960 
	C542.038635,396.843658 545.030823,394.602081 546.682495,389.217651 
	C548.722351,382.567749 551.723755,376.218842 553.997742,369.632202 
	C555.228577,366.067200 557.314941,364.793427 561.011475,364.779694 
	C568.970398,364.750122 570.492310,363.057098 570.828003,354.889404 
	C570.386902,354.733887 569.928040,354.433105 569.467407,354.430237 
	C559.998901,354.371460 550.530151,354.331421 541.061462,354.319733 
	C533.082886,354.309875 531.743164,355.646271 531.090149,364.173187 
	C532.899963,365.340698 534.950378,364.830933 536.890259,364.846924 
	C540.468872,364.876373 541.824402,366.152771 540.332153,369.762573 
	C538.366516,374.517639 536.578735,379.346222 534.429626,384.858704 
z"/>
<path fill="#000000" opacity="1.000000" stroke="none" 
	d="
M450.659790,372.810303 
	C451.843292,371.518311 452.236511,369.781097 454.501831,369.945984 
	C455.631042,372.662292 456.024658,375.617798 454.071625,378.029968 
	C452.535645,379.927063 450.248322,379.175751 448.370148,378.179871 
	C447.940460,375.774414 449.611115,374.619843 450.659790,372.810303 
z"/>
<path fill="#000000" opacity="1.000000" stroke="none" 
	d="
M358.448547,385.971771 
	C353.762970,383.893372 352.993927,380.481628 354.279083,376.351166 
	C356.135498,370.384644 359.879761,366.203430 366.165619,364.913574 
	C372.524048,363.608887 376.498840,368.325226 374.328796,374.380981 
	C371.700317,381.716034 366.226959,385.853729 358.448547,385.971771 
z"/>
</svg>